<svg viewBox="0 0 734 831" fill="none" xmlns="http://www.w3.org/2000/svg">
  <path d="M215.682 522.976C294.747 521.651 374.311 524.075 453.431 522.887C475.171 522.56 497.861 522.489 519.561 523.256C520.971 544.25 519.861 577.441 519.811 598.999C520.101 641.527 520.041 684.058 519.631 726.585C519.571 747.766 519.681 768.948 519.951 790.127C520.031 801.161 520.391 818.836 519.081 829.43C504.071 830.138 486.551 829.614 471.341 829.545L386.391 829.241C330.259 829.211 269.747 830.906 214.06 829.832C213.08 813.148 213.702 790.251 213.709 773.225L213.957 670.939L213.98 580.363C213.937 572.122 212.428 526.861 215.682 522.976Z" fill="#39ff14"/>
  <path d="M328 0.11004C352.771 -0.01796 377.581 -0.120947 402.341 0.323053C408.171 0.428053 407.931 4.59605 408.031 9.68505C409.311 18.6371 405.801 42.097 407.351 49.744C410.181 63.762 403.861 121.438 411.081 129.849C426.311 127.848 472.011 128.823 489.021 128.973C489.021 212.76 501.471 285.874 409.601 326.337C362.191 343.648 313.88 331.537 278.475 295.147C247.208 263.01 244.558 224.799 245.068 182.435C245.278 164.936 244.631 146.893 245.238 129.042C266.305 128.091 309.169 130.715 327.073 128.348C326.927 112.587 326.044 3.73604 328 0.11004ZM373.431 247.257C386.091 244.866 396.451 235.818 400.531 223.606C404.611 211.394 401.771 197.93 393.091 188.414C384.421 178.898 371.281 174.82 358.741 177.754C339.931 182.158 328.082 200.79 332.079 219.695C336.075 238.6 354.451 250.845 373.431 247.257Z" fill="#39ff14"/>
  <path d="M216.669 201.192C218.465 200.631 221.53 200.632 221.37 203.138C218.528 247.364 233.07 277.849 260.443 312.145C241.818 320.344 219.016 321.207 201.342 331.254C193.589 335.661 110.332 438.099 103.573 449.857C103.671 461.654 128.391 522.113 133.946 536.498L175.471 643.584C181.793 659.661 187.517 676.555 194.135 692.414C176.872 692.723 160.51 695.046 146.904 682.804C136.71 673.529 110.61 626.407 102.336 612.625L59.543 542.888C40.84 512.501 18.685 480.383 3.24897 448.07C-1.32403 437.235 -0.385023 426.204 1.89698 415.291C4.63098 402.212 12.519 393.414 19.845 382.403L58.609 325.137C71.784 305.092 85.1009 285.142 98.5599 265.287C110.765 247.154 119.692 229.515 142.444 222.753C166.954 215.468 192.47 209.284 216.669 201.192Z" fill="#39ff14"/>
  <path d="M512.231 200.118C522.451 201.44 549.351 210.944 560.071 214.454C568.901 217.744 595.881 221.749 602.201 226.54C627.431 245.658 650.311 288.641 668.101 314.436C691.471 348.315 713.441 377.211 731.681 412.939C736.041 421.486 733.541 442.67 729.251 451.642C694.571 512.852 654.821 571.459 619.921 632.657C611.211 647.922 599.731 663.17 591.101 678.349C580.501 693.877 557.521 692.716 541.291 692.048C544.941 677.383 556.151 651.71 561.871 636.473L615.131 497.158C618.591 487.843 630.931 457.231 631.911 450.255C622.681 436.659 540.261 335.946 532.781 331.563C518.351 323.113 489.941 318.726 472.941 313.046C474.621 310.738 476.831 308.358 478.661 306.111C504.191 274.702 515.971 240.404 512.231 200.118Z" fill="#39ff14"/>
</svg>
